<?xml version="1.0" standalone="no"?>
<!DOCTYPE svg PUBLIC "-//W3C//DTD SVG 20010904//EN"
 "http://www.w3.org/TR/2001/REC-SVG-20010904/DTD/svg10.dtd">
<svg version="1.0" xmlns="http://www.w3.org/2000/svg"
 width="209.000000pt" height="96.000000pt" viewBox="0 0 209.000000 96.000000"
 preserveAspectRatio="xMidYMid meet">

<g transform="translate(0.000000,96.000000) scale(0.100000,-0.100000)"
fill="#000000" stroke="none">
<path d="M97 923 c-2 -5 -7 -25 -11 -45 -6 -31 -12 -39 -41 -48 -34 -11 -35
-14 -35 -60 l0 -48 68 -7 c80 -8 153 -27 206 -55 22 -11 42 -18 44 -15 3 2 -1
18 -8 34 -9 22 -29 39 -73 61 -33 16 -70 30 -81 30 -12 0 -28 5 -36 11 -11 8
4 9 55 6 187 -11 319 -175 291 -360 -7 -45 -7 -46 -41 -40 -44 7 -63 -8 -57
-47 5 -34 -18 -75 -46 -84 -9 -3 -23 -20 -29 -36 -8 -22 -25 -36 -59 -51 -42
-19 -54 -20 -123 -11 -42 5 -84 13 -93 17 -13 5 -18 2 -18 -9 0 -10 15 -23 35
-31 27 -12 35 -22 41 -50 9 -48 23 -56 96 -53 l63 3 11 44 c15 62 44 72 91 31
l34 -30 45 32 c67 48 70 52 49 98 -17 38 -17 41 -1 59 13 14 26 17 59 14 l42
-5 22 66 21 67 -39 26 c-51 33 -52 63 -4 92 40 23 41 34 16 106 l-18 50 -45
-3 c-64 -4 -78 15 -56 74 l16 45 -52 39 c-29 22 -57 40 -63 40 -5 0 -20 -11
-33 -25 -44 -47 -78 -31 -94 48 -6 26 -8 27 -76 27 -38 0 -71 -3 -73 -7z"/>
<path d="M14 692 c4 -7 22 -12 39 -12 18 0 51 -5 75 -10 47 -11 76 -4 48 12
-27 15 -171 24 -162 10z"/>
<path d="M344 634 c3 -40 8 -48 37 -64 26 -13 34 -24 34 -45 l-1 -27 18 22
c22 27 22 43 2 86 -14 28 -67 74 -87 74 -4 0 -5 -21 -3 -46z"/>
<path d="M10 663 c0 -5 32 -16 70 -25 54 -11 70 -12 70 -2 0 16 -20 23 -86 30
-32 4 -54 3 -54 -3z"/>
<path d="M194 655 c-4 -9 0 -23 8 -31 20 -20 50 -7 46 20 -4 26 -45 35 -54 11z
m46 -5 c0 -5 -2 -10 -4 -10 -3 0 -8 5 -11 10 -3 6 -1 10 4 10 6 0 11 -4 11
-10z"/>
<path d="M262 625 c-15 -32 -55 -33 -76 -3 -16 22 -16 22 -16 1 0 -31 18 -40
93 -45 64 -4 67 -3 67 19 0 15 -10 28 -29 37 -27 14 -29 14 -39 -9z"/>
<path d="M10 624 c0 -14 128 -58 154 -52 12 2 13 6 2 21 -18 24 -156 51 -156
31z"/>
<path d="M955 610 c-3 -5 1 -10 9 -10 12 0 16 -11 16 -45 0 -25 5 -45 10 -45
6 0 10 21 10 46 0 27 4 43 10 39 6 -3 10 1 10 9 0 18 -55 23 -65 6z"/>
<path d="M1040 565 c0 -52 1 -55 25 -55 31 0 33 16 3 24 -19 5 -20 8 -9 15 12
8 13 12 1 26 -11 14 -10 17 8 22 26 6 19 23 -9 23 -16 0 -19 -7 -19 -55z"/>
<path d="M1112 608 c-16 -16 -16 -70 0 -86 16 -16 48 -15 48 2 0 8 -8 13 -17
12 -14 -1 -18 7 -18 29 0 22 4 30 18 29 9 -1 17 4 17 12 0 17 -32 18 -48 2z"/>
<path d="M1230 589 l0 -30 -25 28 -24 28 -1 -52 c0 -29 4 -53 9 -53 4 0 6 11
3 25 -6 33 7 32 35 -2 l22 -28 1 58 c0 31 -4 57 -10 57 -5 0 -10 -14 -10 -31z"/>
<path d="M1270 600 c-26 -48 9 -108 48 -84 36 23 22 104 -18 104 -11 0 -24 -9
-30 -20z m45 -36 c0 -19 -5 -29 -15 -29 -16 0 -25 28 -16 51 10 25 31 10 31
-22z"/>
<path d="M1350 565 c0 -52 1 -55 25 -55 14 0 25 5 25 10 0 6 -7 10 -15 10 -11
0 -15 12 -15 45 0 25 -4 45 -10 45 -5 0 -10 -25 -10 -55z"/>
<path d="M1414 595 c-12 -18 -14 -31 -7 -52 18 -53 73 -37 73 21 0 56 -38 74
-66 31z m56 -34 c-1 -17 -20 -33 -34 -28 -19 8 -21 38 -4 55 10 10 15 9 25 -5
7 -9 13 -19 13 -22z"/>
<path d="M1512 608 c-14 -14 -16 -66 -3 -86 4 -8 19 -12 32 -10 33 4 42 58 10
58 -12 0 -21 -4 -21 -10 0 -5 5 -10 10 -10 6 0 10 -4 10 -10 0 -19 -29 -10
-35 10 -8 25 12 53 32 45 9 -3 13 0 11 7 -6 18 -31 21 -46 6z"/>
<path d="M1588 565 c-1 -30 0 -55 5 -55 4 0 7 25 7 55 0 71 -7 71 -12 0z"/>
<path d="M1632 608 c-15 -15 -16 -70 0 -86 17 -17 48 -15 48 3 0 8 -6 12 -13
9 -8 -3 -19 2 -26 10 -16 20 4 60 26 52 9 -4 13 -1 11 6 -6 18 -31 21 -46 6z"/>
<path d="M1698 595 c-23 -51 20 -106 57 -75 17 14 19 53 5 81 -15 27 -48 24
-62 -6z m47 -31 c0 -19 -5 -29 -15 -29 -16 0 -25 28 -16 51 10 25 31 10 31
-22z"/>
<path d="M10 565 c0 -24 3 -25 58 -25 87 0 95 14 18 34 -81 20 -76 21 -76 -9z"/>
<path d="M183 560 c-22 -9 -32 -21 -15 -19 22 4 52 -3 64 -13 10 -11 19 -8 42
15 l29 27 -49 -1 c-27 0 -59 -4 -71 -9z"/>
<path d="M321 551 c-18 -14 -21 -20 -10 -24 8 -4 3 -5 -10 -4 -18 1 -29 -6
-40 -24 -13 -24 -13 -29 2 -53 21 -31 53 -34 62 -6 3 11 11 20 17 20 7 0 8 14
4 40 -4 25 -2 40 4 40 5 0 10 7 10 15 0 20 -10 19 -39 -4z"/>
<path d="M10 517 c0 -9 26 -16 84 -23 83 -9 84 -9 84 14 0 21 -4 22 -84 22
-63 0 -84 -3 -84 -13z"/>
<path d="M193 514 c-7 -19 11 -39 26 -30 16 10 13 33 -4 40 -9 3 -18 -1 -22
-10z m27 -15 c0 -5 -4 -9 -10 -9 -5 0 -10 7 -10 16 0 8 5 12 10 9 6 -3 10 -10
10 -16z"/>
<path d="M23 484 c-12 -5 -19 -54 -8 -54 2 0 19 9 37 20 53 32 58 23 6 -11
-49 -32 -66 -67 -51 -107 7 -19 15 -11 65 63 41 61 52 84 40 83 -10 0 -30 2
-47 5 -16 4 -36 4 -42 1z"/>
<path d="M116 433 c-20 -26 -54 -84 -77 -127 l-42 -80 23 -18 c12 -10 36 -18
54 -18 l32 0 11 97 c7 54 19 118 28 142 8 24 13 46 11 48 -3 3 -20 -17 -40
-44z"/>
<path d="M221 471 c-7 -5 -21 -6 -31 -4 -26 7 -39 -45 -47 -179 l-6 -108 41 0
c55 0 90 15 103 44 11 22 8 28 -21 53 -39 32 -56 70 -64 138 l-6 50 14 -47
c20 -67 47 -109 84 -131 31 -19 34 -19 52 -2 11 10 20 31 20 47 0 26 -3 28
-36 28 -36 0 -94 32 -94 52 0 5 14 -2 31 -16 32 -27 54 -32 78 -17 10 6 4 11
-20 16 -44 10 -89 33 -89 46 0 6 4 8 9 5 5 -4 7 3 4 14 -3 11 -6 20 -7 20 0 0
-7 -4 -15 -9z m5 -31 c0 -12 -4 -16 -9 -11 -5 5 -6 14 -3 20 10 15 12 14 12
-9z"/>
<path d="M700 402 c0 -29 5 -52 10 -52 6 0 10 12 10 28 l1 27 24 -27 c13 -16
27 -28 30 -28 3 0 5 23 5 50 0 28 -4 50 -10 50 -5 0 -10 -12 -10 -27 l0 -27
-30 29 -30 29 0 -52z"/>
<path d="M811 412 c-8 -20 -16 -42 -18 -47 -2 -6 13 -10 35 -10 l39 0 -19 45
c-11 24 -20 46 -22 47 -1 1 -8 -14 -15 -35z m23 -17 c3 -9 0 -15 -9 -15 -9 0
-12 6 -9 15 4 8 7 15 9 15 2 0 5 -7 9 -15z"/>
<path d="M874 425 c-12 -48 17 -98 47 -79 16 9 10 24 -10 24 -22 0 -30 16 -23
43 3 13 12 18 27 14 16 -3 22 0 18 10 -3 7 -16 13 -29 13 -17 0 -25 -7 -30
-25z"/>
<path d="M950 400 c0 -27 5 -50 10 -50 6 0 10 23 10 50 0 28 -4 50 -10 50 -5
0 -10 -22 -10 -50z"/>
<path d="M996 434 c-23 -59 15 -114 55 -78 21 19 25 64 7 82 -17 17 -55 15
-62 -4z m49 -34 c0 -15 -6 -26 -16 -28 -19 -3 -31 21 -22 43 9 25 38 13 38
-15z"/>
<path d="M1080 403 c0 -29 5 -53 10 -53 6 0 10 12 10 28 l0 27 25 -30 24 -30
-1 55 c0 30 -3 43 -5 28 -2 -16 -6 -28 -9 -28 -3 0 -16 12 -29 28 l-24 27 -1
-52z"/>
<path d="M1184 404 l-21 -49 38 0 c42 0 42 0 15 69 l-12 30 -20 -50z m26 -9
c0 -8 -4 -15 -10 -15 -5 0 -7 7 -4 15 4 8 8 15 10 15 2 0 4 -7 4 -15z"/>
<path d="M1250 400 c0 -49 1 -50 30 -50 17 0 30 5 30 10 0 6 -9 10 -20 10 -17
0 -20 7 -20 40 0 22 -4 40 -10 40 -5 0 -10 -22 -10 -50z"/>
<path d="M1370 400 c0 -46 2 -50 23 -50 30 0 47 18 47 50 0 32 -17 50 -47 50
-21 0 -23 -4 -23 -50z m45 0 c0 -13 -6 -25 -12 -27 -9 -3 -13 6 -13 27 0 21 4
30 13 28 6 -3 12 -15 12 -28z"/>
<path d="M1453 400 c0 -48 1 -50 29 -50 15 0 28 5 28 10 0 6 -9 10 -20 10 -22
0 -27 15 -7 24 10 5 10 7 0 12 -20 9 -15 24 7 24 11 0 20 5 20 10 0 6 -13 10
-29 10 -28 0 -29 -1 -28 -50z"/>
<path d="M1570 426 c0 -13 -3 -38 -7 -56 -4 -24 -3 -31 5 -26 7 4 12 17 13 29
l0 22 11 -22 c6 -13 14 -23 18 -23 4 0 11 10 15 23 7 21 8 21 15 -8 9 -35 13
-25 10 25 -2 45 -17 61 -26 26 -8 -34 -20 -33 -33 4 -12 36 -21 39 -21 6z"/>
<path d="M1670 401 c0 -44 2 -49 25 -53 17 -4 25 -1 25 8 0 8 -7 14 -15 14
-18 0 -20 16 -2 24 10 5 10 7 0 12 -18 8 -16 24 2 24 8 0 15 5 15 10 0 6 -11
10 -25 10 -23 0 -25 -3 -25 -49z"/>
<path d="M1745 433 c9 -21 9 -39 0 -73 l-7 -25 20 24 c16 20 20 21 25 7 4 -9
11 -16 17 -16 7 0 5 10 -4 27 -12 24 -12 30 1 50 9 14 11 23 5 23 -6 0 -15 -8
-21 -17 -9 -17 -10 -17 -16 0 -4 9 -12 17 -17 17 -6 0 -7 -7 -3 -17z"/>
<path d="M1830 394 c0 -34 4 -53 10 -49 6 3 10 28 10 56 0 27 -4 49 -10 49 -5
0 -10 -25 -10 -56z"/>
<path d="M1872 438 c-29 -29 -2 -103 36 -96 19 4 29 30 11 27 -33 -4 -40 2
-37 29 2 21 8 27 26 26 12 0 21 4 19 10 -5 16 -40 19 -55 4z"/>
<path d="M1952 438 c-7 -7 -12 -26 -12 -43 0 -50 33 -71 64 -39 31 30 15 94
-24 94 -9 0 -21 -5 -28 -12z m46 -38 c5 -30 -19 -45 -35 -23 -9 11 -9 21 -2
35 13 24 33 18 37 -12z"/>
</g>
</svg>
